# xmcd
#
# Track frame offsets:
#	150
#	20286
#	49363
#	75997
#	93539
#	120743
#	147437
#	178509
#	199300
#	213048
#	229684
#	251077
#	271878
#	292744
#	312485
#	326883
#
# Disc length: 4699 seconds
#
# Revision: 1
# Processed by: cddbd v1.4PL0 Copyright (c) Steve Scherf et al.
# Submitted via: audiograbber 1.80
#
DISCID=e5125910
DTITLE=Jose Padilla - Balearic Guru (best of)
DYEAR=1900
DGENRE=
TTITLE0=Adios Ayer (Fresh mix)
TTITLE1=Sabor de Verano (Way Out West mix)
TTITLE2=Who Do You Love
TTITLE3=El Suendo De Ibiza
TTITLE4=Bosaxi (Touched mix)
TTITLE5=Que Bonito
TTITLE6=Alive
TTITLE7=Las Cazuelas (2000 Remix)
TTITLE8=Rumba Marina
TTITLE9=Nina
TTITLE10=Brisa
TTITLE11=Something
TTITLE12=Strolling
TTITLE13=The Look of Love
TTITLE14=Meditacion
TTITLE15=Lontano
EXTD=
EXTT0=
EXTT1=
EXTT2=
EXTT3=
EXTT4=
EXTT5=
EXTT6=
EXTT7=
EXTT8=
EXTT9=
EXTT10=
EXTT11=
EXTT12=
EXTT13=
EXTT14=
EXTT15=
PLAYORDER=
